HIERARCHY
ROOT joint_Root
{
	OFFSET 0.0 0.0 0.0
	CHANNELS 6 Xposition Yposition Zposition Zrotation Xrotation Yrotation 
	JOINT Hips
	{
		OFFSET -17.1583 93.1646 452.98
		CHANNELS 6 Xposition Yposition Zposition Zrotation Xrotation Yrotation 
		JOINT Spine
		{
			OFFSET 15.7357 0.0 0.0
			CHANNELS 6 Xposition Yposition Zposition Zrotation Xrotation Yrotation 
			JOINT Chest
			{
				OFFSET 8.98455 -0.406207 0.0
				CHANNELS 6 Xposition Yposition Zposition Zrotation Xrotation Yrotation 
				JOINT Neck
				{
					OFFSET 16.3773 0.0 0.0
					CHANNELS 6 Xposition Yposition Zposition Zrotation Xrotation Yrotation 
					JOINT Head
					{
						OFFSET 6.45672 0.0 0.0
						CHANNELS 6 Xposition Yposition Zposition Zrotation Xrotation Yrotation 
						End Site
						{
							OFFSET 0.0 0.0 0.0
						}
					}
				}
				JOINT Shoulder_L
				{
					OFFSET 12.9942 -0.242716 4.98039
					CHANNELS 6 Xposition Yposition Zposition Zrotation Xrotation Yrotation 
					JOINT UpperArm_L
					{
						OFFSET 5.34809 0.0 0.0
						CHANNELS 6 Xposition Yposition Zposition Zrotation Xrotation Yrotation 
						JOINT LowerArm_L
						{
							OFFSET 24.3286 1.87007e-05 0.0
							CHANNELS 6 Xposition Yposition Zposition Zrotation Xrotation Yrotation 
							JOINT Hand_L
							{
								OFFSET 22.2916 0.0 0.0
								CHANNELS 6 Xposition Yposition Zposition Zrotation Xrotation Yrotation 
								End Site
								{
									OFFSET 0.0 0.0 0.0
								}
							}
						}
					}
				}
				JOINT Shoulder_R
				{
					OFFSET 12.9945 -0.242716 -4.98039
					CHANNELS 6 Xposition Yposition Zposition Zrotation Xrotation Yrotation 
					JOINT UpperArm_R
					{
						OFFSET -5.34813 0.0 0.0
						CHANNELS 6 Xposition Yposition Zposition Zrotation Xrotation Yrotation 
						JOINT LowerArm_R
						{
							OFFSET -24.3289 0.000322201 0.0
							CHANNELS 6 Xposition Yposition Zposition Zrotation Xrotation Yrotation 
							JOINT Hand_R
							{
								OFFSET -22.2915 -0.000108084 0.0
								CHANNELS 6 Xposition Yposition Zposition Zrotation Xrotation Yrotation 
								End Site
								{
									OFFSET 0.0 0.0 0.0
								}
							}
						}
					}
				}
			}
		}
		JOINT UpperLeg_L
		{
			OFFSET -2.19248 -6.46944 0.0
			CHANNELS 6 Xposition Yposition Zposition Zrotation Xrotation Yrotation 
			JOINT LowerLeg_L
			{
				OFFSET 39.0811 0.0 -1.23785e-05
				CHANNELS 6 Xposition Yposition Zposition Zrotation Xrotation Yrotation 
				JOINT Foot_L
				{
					OFFSET 40.9854 0.0 -1.26872e-05
					CHANNELS 6 Xposition Yposition Zposition Zrotation Xrotation Yrotation 
					JOINT Toes_L
					{
						OFFSET 11.7543 0.0 0.0
						CHANNELS 6 Xposition Yposition Zposition Zrotation Xrotation Yrotation 
						End Site
						{
							OFFSET 0.0 0.0 0.0
						}
					}
				}
			}
		}
		JOINT UpperLeg_R
		{
			OFFSET -2.19251 6.46944 0.0
			CHANNELS 6 Xposition Yposition Zposition Zrotation Xrotation Yrotation 
			JOINT LowerLeg_R
			{
				OFFSET -39.0811 -0.00228153 -0.0401928
				CHANNELS 6 Xposition Yposition Zposition Zrotation Xrotation Yrotation 
				JOINT Foot_R
				{
					OFFSET -40.9854 0.0 0.0
					CHANNELS 6 Xposition Yposition Zposition Zrotation Xrotation Yrotation 
					JOINT Toes_R
					{
						OFFSET -11.7543 0.0 0.0
						CHANNELS 6 Xposition Yposition Zposition Zrotation Xrotation Yrotation 
						End Site
						{
							OFFSET 0.0 0.0 0.0
						}
					}
				}
			}
		}
	}
}
MOTION
Frames:	8
Frame Time:	0.0333333
0.000000 0.000000 0.000000 0.000000 0.000000 -0.000000 154.021000 92.364700 221.590000 -85.786400 33.010700 176.806000 15.735700 0.000005 -0.000001 106.626000 86.220000 -104.843000 8.984550 -0.406207 -0.000000 -0.550953 2.033290 3.573720 16.377300 -0.000001 -0.000001 5.209740 8.802850 2.631380 6.456720 -0.000001 -0.000000 11.067900 15.572900 5.558380 12.994200 -0.242716 4.980390 -93.022400 7.970790 -69.154900 5.348090 -0.000007 -0.000001 -63.134800 -1.518900 11.879200 24.328600 0.000019 0.000005 4.259250 34.380000 -7.514080 22.291600 -0.000001 0.000005 -12.110300 5.020330 6.885760 12.994500 -0.242716 -4.980390 88.976800 3.330250 -72.910000 -5.348130 -0.000001 -0.000004 -53.509700 3.067860 -24.921700 -24.328900 0.000322 -0.000009 -0.367743 -0.878264 -22.645500 -22.291500 -0.000108 -0.000004 8.894610 5.296690 0.165317 -2.192480 -6.469440 -0.000000 -173.325000 1.622040 -25.609500 39.081100 -0.000007 -0.000012 0.361403 -0.164573 65.516400 40.985400 -0.000006 -0.000013 -5.286680 14.757600 -47.401000 11.754300 -0.000000 0.000003 0.001686 0.036224 -15.107300 -2.192510 6.469440 -0.000001 173.813000 17.556900 -179.643000 -39.081100 -0.002282 -0.040193 -0.064269 0.193213 19.281400 -40.985400 0.000008 0.000006 -17.557800 2.552640 -64.426400 -11.754300 -0.000006 -0.000006 0.001161 0.145080 -10.689700
0.000000 0.000000 0.000000 0.000000 0.000000 -0.000000 155.507000 92.664300 219.842000 -86.847300 31.045100 175.839000 15.735700 0.000005 -0.000001 120.408000 86.247300 -119.033000 8.984550 -0.406207 -0.000000 -1.336340 3.688900 2.793700 16.377300 -0.000001 -0.000001 4.298330 7.930780 3.070930 6.456720 -0.000001 -0.000000 10.188200 13.559100 6.135750 12.994200 -0.242716 4.980390 -93.115900 7.764370 -68.054000 5.348090 -0.000007 -0.000001 -56.419400 -7.797030 14.465400 24.328600 0.000019 0.000005 3.108630 21.028200 -8.607870 22.291600 -0.000001 0.000005 -12.139200 5.086580 5.419430 12.994500 -0.242716 -4.980390 89.081200 3.138380 -73.673000 -5.348130 -0.000001 -0.000004 -49.274900 0.439952 -26.150400 -24.328900 0.000322 -0.000009 -1.445120 -2.764910 -27.587900 -22.291500 -0.000108 -0.000004 9.530790 5.326050 -0.670348 -2.192480 -6.469440 -0.000000 -174.751000 0.899623 -28.980000 39.081100 -0.000007 -0.000012 0.298550 -0.173470 59.841200 40.985400 -0.000006 -0.000013 -8.547850 18.798500 -50.227300 11.754300 -0.000000 0.000003 0.001985 0.046121 -14.705900 -2.192510 6.469440 -0.000001 172.842000 20.570000 -177.850000 -39.081100 -0.002282 -0.040193 -0.044256 0.162116 16.357800 -40.985400 0.000008 0.000006 -18.030800 3.561690 -62.307700 -11.754300 -0.000006 -0.000006 0.002159 0.114345 -11.936300
0.000000 0.000000 0.000000 0.000000 0.000000 -0.000000 156.914000 92.837400 218.050000 -87.748400 28.978200 174.608000 15.735700 0.000005 -0.000001 131.383000 86.184100 -130.349000 8.984550 -0.406207 -0.000000 -2.086430 4.955120 2.159160 16.377300 -0.000001 -0.000001 3.157390 7.201800 3.254190 6.456720 -0.000001 -0.000000 9.412660 11.847700 6.497190 12.994200 -0.242716 4.980390 -93.069200 7.362060 -67.293300 5.348090 -0.000007 -0.000001 -50.659000 -13.656200 16.362000 24.328600 0.000019 0.000005 2.220370 11.989500 -10.573900 22.291600 -0.000001 0.000005 -10.339600 5.051660 6.199280 12.994500 -0.242716 -4.980390 89.200800 2.826920 -74.207700 -5.348130 -0.000001 -0.000004 -46.024400 -2.864250 -27.021600 -24.328900 0.000322 -0.000009 -2.239250 -3.643780 -31.589100 -22.291500 -0.000108 -0.000004 10.209000 5.344590 -1.215350 -2.192480 -6.469440 -0.000000 -176.595000 0.190852 -31.589000 39.081100 -0.000007 -0.000012 0.202124 -0.157583 52.058200 40.985400 -0.000006 -0.000013 -8.050470 17.955800 -52.737300 11.754300 -0.000000 0.000003 0.001749 0.038148 -15.029300 -2.192510 6.469440 -0.000001 172.250000 22.435700 -176.381000 -39.081100 -0.002282 -0.040193 -0.020092 0.096093 13.699500 -40.985400 0.000008 0.000006 -18.938200 3.513870 -60.572700 -11.754300 -0.000006 -0.000006 0.002479 0.078523 -13.388600
0.000000 0.000000 0.000000 0.000000 0.000000 -0.000000 158.309000 92.824200 216.190000 -88.280700 27.012300 173.215000 15.735700 0.000005 -0.000001 139.002000 86.126700 -138.133000 8.984550 -0.406207 -0.000000 -2.733120 5.764910 1.877420 16.377300 -0.000001 -0.000001 1.823070 6.716530 3.082040 6.456720 -0.000001 -0.000000 8.763960 10.551300 6.438200 12.994200 -0.242716 4.980390 -92.960500 6.980100 -66.947600 5.348090 -0.000007 -0.000001 -46.306100 -18.402300 17.956400 24.328600 0.000019 0.000005 1.749730 7.709310 -12.829200 22.291600 -0.000001 0.000005 -3.662210 5.044900 6.349050 12.994500 -0.242716 -4.980390 89.353400 2.355530 -74.646100 -5.348130 -0.000001 -0.000004 -44.116500 -6.477140 -27.861900 -24.328900 0.000322 -0.000009 -2.672930 -3.829760 -34.940900 -22.291500 -0.000108 -0.000004 10.445700 5.342720 -1.159980 -2.192480 -6.469440 -0.000000 -178.385000 -0.741246 -32.842000 39.081100 -0.000007 -0.000012 0.111477 -0.124852 41.760300 40.985400 -0.000006 -0.000013 -5.780920 15.273200 -55.339200 11.754300 -0.000000 0.000003 0.001880 0.042399 -14.856900 -2.192510 6.469440 -0.000001 172.337000 22.887200 -175.606000 -39.081100 -0.002282 -0.040193 -0.002444 0.026669 12.227000 -40.985400 0.000008 0.000006 -19.562300 2.166330 -59.778800 -11.754300 -0.000006 -0.000006 0.001873 0.042135 -14.864000
0.000000 0.000000 0.000000 0.000000 0.000000 -0.000000 159.709000 92.641800 214.115000 -88.476400 25.414900 171.937000 15.735700 0.000005 -0.000001 143.397000 86.110100 -142.552000 8.984550 -0.406207 -0.000000 -3.180680 6.162020 1.862120 16.377300 -0.000001 -0.000001 0.485295 6.464770 2.775550 6.456720 -0.000001 -0.000000 8.119190 9.756290 6.025080 12.994200 -0.242716 4.980390 -92.825800 6.729530 -67.158300 5.348090 -0.000007 -0.000001 -43.339400 -21.755600 19.616100 24.328600 0.000019 0.000005 1.588630 6.103120 -14.620500 22.291600 -0.000001 0.000005 7.107460 5.024750 6.781150 12.994500 -0.242716 -4.980390 89.479300 1.948780 -75.037400 -5.348130 -0.000001 -0.000004 -43.782300 -9.956930 -29.123500 -24.328900 0.000322 -0.000009 -2.962850 -3.873750 -37.445700 -22.291500 -0.000108 -0.000004 10.494200 5.343470 -1.182170 -2.192480 -6.469440 -0.000000 179.875000 -2.089280 -31.908200 39.081100 -0.000007 -0.000012 0.052761 -0.098476 28.180800 40.985400 -0.000006 -0.000013 -4.355790 12.113100 -57.111200 11.754300 -0.000000 0.000003 0.001938 0.044402 -14.775600 -2.192510 6.469440 -0.000001 172.687000 23.064500 -175.424000 -39.081100 -0.002282 -0.040193 0.004419 -0.004922 12.428100 -40.985400 0.000008 0.000006 -19.362100 0.783017 -59.458700 -11.754300 -0.000006 -0.000006 -0.000747 -0.011752 -17.051200
0.000000 0.000000 0.000000 0.000000 0.000000 -0.000000 161.081000 92.211100 211.648000 -88.606400 24.131900 170.746000 15.735700 0.000005 -0.000001 145.571000 86.259400 -144.706000 8.984550 -0.406207 -0.000000 -3.591480 6.081620 1.921580 16.377300 -0.000001 -0.000001 -0.925782 6.440350 2.513850 6.456720 -0.000001 -0.000000 7.564080 9.491320 5.391820 12.994200 -0.242716 4.980390 -92.718000 6.630730 -67.651000 5.348090 -0.000007 -0.000001 -41.711100 -23.649000 21.017300 24.328600 0.000019 0.000005 1.109140 4.184370 -14.858900 22.291600 -0.000001 0.000005 19.575100 4.922840 8.898270 12.994500 -0.242716 -4.980390 89.596800 1.554050 -75.452500 -5.348130 -0.000001 -0.000004 -45.069200 -12.663900 -30.597300 -24.328900 0.000322 -0.000009 -3.307900 -4.014480 -39.533000 -22.291500 -0.000108 -0.000004 10.642700 5.347550 -1.303830 -2.192480 -6.469440 -0.000000 177.665000 -3.655270 -29.088900 39.081100 -0.000007 -0.000012 0.021680 -0.102172 11.980500 40.985400 -0.000006 -0.000013 -3.943640 7.414760 -57.758200 11.754300 -0.000000 0.000003 0.002075 0.049698 -14.560900 -2.192510 6.469440 -0.000001 172.832000 23.049800 -175.902000 -39.081100 -0.002282 -0.040193 -0.001839 0.020117 14.412800 -40.985400 0.000008 0.000006 -18.992900 -0.284851 -59.459200 -11.754300 -0.000006 -0.000006 -0.006512 -0.075421 -19.643000
0.000000 0.000000 0.000000 0.000000 0.000000 -0.000000 162.413000 91.670300 208.733000 -88.792800 22.749300 169.401000 15.735700 0.000005 -0.000001 147.191000 86.670500 -146.323000 8.984550 -0.406207 -0.000000 -4.209070 5.501940 1.940120 16.377300 -0.000001 -0.000001 -2.622480 6.397250 2.387020 6.456720 -0.000001 -0.000000 7.221400 9.601840 4.780070 12.994200 -0.242716 4.980390 -92.655500 6.676070 -68.250800 5.348090 -0.000007 -0.000001 -40.973600 -24.786400 21.709300 24.328600 0.000019 0.000005 0.586697 2.518880 -13.113400 22.291600 -0.000001 0.000005 28.156900 4.753260 12.176800 12.994500 -0.242716 -4.980390 89.669300 1.302930 -75.758700 -5.348130 -0.000001 -0.000004 -47.229100 -13.951100 -31.431400 -24.328900 0.000322 -0.000009 -3.741350 -4.156720 -42.046300 -22.291500 -0.000108 -0.000004 11.364400 5.347580 -1.304870 -2.192480 -6.469440 -0.000000 175.002000 -4.869970 -31.198100 39.081100 -0.000007 -0.000012 0.001785 -0.015704 6.488050 40.985400 -0.000006 -0.000013 -3.209080 2.866080 -60.068900 11.754300 -0.000000 0.000003 0.002158 0.053296 -14.415000 -2.192510 6.469440 -0.000001 172.753000 23.302100 -176.837000 -39.081100 -0.002282 -0.040193 -0.011129 0.046401 17.302900 -40.985400 0.000008 0.000006 -18.651800 -1.018150 -58.990400 -11.754300 -0.000006 -0.000006 -0.017754 -0.154516 -22.882100
0.000000 0.000000 0.000000 0.000000 0.000000 -0.000000 163.876000 90.992800 205.256000 -88.719300 21.352100 168.447000 15.735700 0.000005 -0.000001 146.991000 87.068700 -146.003000 8.984550 -0.406207 -0.000000 -4.621540 4.805290 2.171330 16.377300 -0.000001 -0.000001 -4.374220 6.391830 2.182470 6.456720 -0.000001 -0.000000 6.644320 9.612360 4.332700 12.994200 -0.242716 4.980390 -92.597100 6.790630 -69.012700 5.348090 -0.000007 -0.000001 -40.897100 -25.969200 21.567500 24.328600 0.000019 0.000005 0.375632 2.314960 -9.218370 22.291600 -0.000001 0.000005 29.175800 4.635250 14.305600 12.994500 -0.242716 -4.980390 89.700000 1.207500 -76.048200 -5.348130 -0.000001 -0.000004 -49.451900 -14.165800 -30.691500 -24.328900 0.000322 -0.000009 -3.942940 -3.889550 -45.449900 -22.291500 -0.000108 -0.000004 11.637400 5.351060 -1.409010 -2.192480 -6.469440 -0.000000 173.155000 -5.443870 -32.684000 39.081100 -0.000007 -0.000012 -0.000887 0.011579 4.376710 40.985400 -0.000006 -0.000013 -3.888320 1.760760 -62.569900 11.754300 -0.000000 0.000003 0.002115 0.051383 -14.492600 -2.192510 6.469440 -0.000001 172.665000 22.923000 -177.375000 -39.081100 -0.002282 -0.040193 -0.013328 0.043834 20.796700 -40.985400 0.000008 0.000006 -18.273400 -2.250460 -57.822000 -11.754300 -0.000006 -0.000006 -0.038024 -0.252134 -26.924700
